# xmcd
#
# Track frame offsets: 
#        150
#        15407
#        30761
#        47491
#        64729
#        83763
#        100135
#        113495
#        130153
#        145771
#        162521
#        182767
#        195241
#        208898
#        222985
#
# Disc length: 3150 seconds
#
# Revision: 0
# Processed by: cddbd v1.5.2PL0 Copyright (c) Steve Scherf et al.
# Submitted via: ExactAudioCopy v0.99pb3
#
DISCID=bf0c4c0f
DTITLE=Timo Kiiskinen - Omalla Maalla
DYEAR=2007
DGENRE=Pop
TTITLE0=Hengissä
TTITLE1=Kellot
TTITLE2=Kaikki Muuttuu
TTITLE3=Kartanon Mailla
TTITLE4=Sininen Sointu
TTITLE5=Ainutkertainen
TTITLE6=Rikki Menneet
TTITLE7=Luvattu Maa
TTITLE8=Suuret Kädet
TTITLE9=Tuhkaa
TTITLE10=Vaeltava Muukalainen
TTITLE11=Enkelibändi
TTITLE12=Herrojen Herra
TTITLE13=Ihmisen Sielu
TTITLE14=Armo
EXTD=
EXTT0=
EXTT1=
EXTT2=
EXTT3=
EXTT4=
EXTT5=
EXTT6=
EXTT7=
EXTT8=
EXTT9=
EXTT10=
EXTT11=
EXTT12=
EXTT13=
EXTT14=
PLAYORDER=
